<?xml version="1.0" encoding="UTF-8"?>
<!DOCTYPE svg PUBLIC "-//W3C//DTD SVG 1.1//EN" "http://www.w3.org/Graphics/SVG/1.1/DTD/svg11.dtd">
<!-- Creator: CorelDRAW 2017 -->
<svg xmlns="http://www.w3.org/2000/svg" xml:space="preserve" width="100px" height="127px" version="1.1" style="shape-rendering:geometricPrecision; text-rendering:geometricPrecision; image-rendering:optimizeQuality; fill-rule:evenodd; clip-rule:evenodd"
viewBox="0 0 100 127.27"
 xmlns:xlink="http://www.w3.org/1999/xlink">
 <defs>
  <style type="text/css">
   <![CDATA[
    .str1 {stroke:#2B2A29;stroke-width:7.27;stroke-miterlimit:22.9256}
    .str2 {stroke:#ffffff;stroke-width:7.27;stroke-miterlimit:22.9256}
    .str0 {stroke:#2B2A29;stroke-width:0.36;stroke-miterlimit:22.9256}
    .fil2 {fill:none}
    .fil0 {fill:#ffffff}
    .fil1 {fill:#308CCE}
   ]]>
  </style>
 </defs>
 <g id="Слой_x0020_1">
  <metadata id="CorelCorpID_0Corel-Layer"/>
  <path class="fil0" d="M-0.42 22.98c0,3.51 0.09,4.89 0.04,7.91 -0.38,27.33 7.31,60.87 27.06,80.62 3.9,3.91 17.21,14.59 23.06,14.89 4.89,0.28 17.96,-10.85 21.43,-14.32 15.87,-15.87 22.41,-38.48 26.14,-59.83 2.02,-11.61 1.11,-16.03 1.11,-27.74 -8.8,-2.09 -28.42,-11.44 -37.07,-16.8 -3.88,-2.4 -7.6,-5.29 -11.24,-7.46 -8.18,6.4 -41.38,21.91 -50.53,22.73z"/>
  <path class="fil1" d="M12.54 54.51c2.07,11.89 3.53,17.28 9.04,28.88 3.08,6.47 7.81,14.17 13.09,19.46 0.08,0.11 -0.07,-0.11 0,0 2.49,2.97 11.38,9.53 14.67,10.06 4.84,0.76 12.68,-7.67 16.93,-12.63 1.19,-1.37 5.25,-6.68 6.21,-8.15 2.44,-3.68 2.7,-5.26 4.65,-9.15 6.83,-13.67 12.09,-31.83 10.36,-49.44 -1.86,0.33 -38.44,-17.87 -38.05,-19.16 -7.27,6.22 -34.81,17.98 -38.9,19.66 -0.22,0.09 1.74,17.85 2,20.47z"/>
  <line class="fil2 str0" x1="49.1" y1="0.25" x2="49.1" y2= "0.25" />
  <line class="fil2 str0" x1="49.1" y1="0.25" x2="49.1" y2= "0.25" />
  <line class="fil2 str0" x1="49.1" y1="0.25" x2="49.1" y2= "0.25" />
  <line class="fil2 str0" x1="49.1" y1="0.25" x2="49.1" y2= "0.25" />
  <line class="fil2 str0" x1="49.1" y1="0.25" x2="49.1" y2= "0.25" />
  <line class="fil2 str0" x1="49.1" y1="0.25" x2="49.1" y2= "0.25" />
  <line class="fil2 str0" x1="49.1" y1="0.25" x2="49.1" y2= "0.25" />
  <line class="fil2 str1" x1="49.1" y1="0.25" x2="49.1" y2= "0.25" />
  <line class="fil2 str1" x1="49.1" y1="0.25" x2="49.1" y2= "0.25" />
  <line class="fil2 str2" x1="40.99" y1="52.16" x2="41.05" y2= "73.67" />
  <line class="fil2 str2" x1="50.32" y1="47.16" x2="50.32" y2= "73.82" />
  <line class="fil2 str2" x1="58.13" y1="47.63" x2="69.97" y2= "71.52" />
  <line class="fil2 str2" x1="31.87" y1="47.1" x2="31.87" y2= "73.76" />
 </g>
</svg>
